<svg width="335" height="351" viewBox="0 0 335 351" fill="none" xmlns="http://www.w3.org/2000/svg">
<path d="M108.119 286.806H53.8609V233.147H108.119V286.806ZM65.5309 275.264H96.4487V244.689H65.5309V275.264Z" fill="white"/>
<path d="M283.169 286.806H228.915V233.147H283.169V286.806ZM240.585 275.264H271.499V244.689H240.585V275.264V275.264Z" fill="white"/>
<path d="M106.917 79.0527H52.6628V25.394H106.921V79.0527H106.917ZM64.3328 67.5111H95.2505V36.9357H64.3328V67.5111Z" fill="white"/>
<path d="M176.937 79.0527H122.683V25.394H176.941V79.0527H176.937ZM134.353 67.5111H165.271V36.9357H134.353V67.5111Z" fill="white"/>
<path d="M106.917 148.306H52.6628V94.6436H106.921V148.306H106.917ZM64.3328 136.764H95.2505V106.189H64.3328V136.764Z" fill="white"/>
<path d="M176.937 148.306H122.683V94.6436H176.941V148.306H176.937ZM134.353 136.764H165.271V106.189H134.353V136.764Z" fill="white"/>
<path d="M106.917 217.556H52.6628V163.894H106.921V217.556H106.917ZM64.3328 206.014H95.2505V175.439H64.3328V206.014Z" fill="white"/>
<path d="M176.937 217.556H122.683V163.894H176.941V217.556H176.937ZM134.353 206.014H165.271V175.439H134.353V206.014Z" fill="white"/>
<path d="M281.967 148.306H227.713V94.6436H281.967V148.306ZM239.383 136.764H270.297V106.189H239.383V136.764Z" fill="white"/>
<path d="M281.967 217.556H227.713V163.894H281.967V217.556ZM239.383 206.014H270.297V175.439H239.383V206.014Z" fill="white"/>
<path d="M313.017 338.558V67.511H208.243V0H21.5234V338.558H0V350.1H123.881H178.139H334.54V338.558H313.017ZM301.347 79.0526V338.558H208.243V79.0526H301.347ZM135.551 338.558V244.689H166.469V338.558H135.551ZM123.881 233.147V338.558H33.1934V11.5416H196.573V338.558H178.139V233.147H123.881Z" fill="white"/>
</svg>
